<?xml version="1.0" encoding="utf-8"?>
<!-- Generator: Adobe Illustrator 21.1.0, SVG Export Plug-In . SVG Version: 6.00 Build 0)  -->
<svg version="1.1" id="Capa_1" xmlns="http://www.w3.org/2000/svg" xmlns:xlink="http://www.w3.org/1999/xlink" x="0px" y="0px"
	 viewBox="0 0 30 30" style="enable-background:new 0 0 30 30;" xml:space="preserve">
<style type="text/css">
	.st0{fill:#0DB0BD;}
	.st1{fill:#4AC3C8;}
	.st2{fill:#FFE080;}
	.st3{fill:#FFCD4E;}
	.st4{fill:#08A3AE;}
	.st5{fill:#EF4883;}
	.st6{fill:#F16E9E;}
	.st7{fill:#822556;}
	.st8{fill:#5D153B;}
	.st9{enable-background:new    ;}
	.st10{fill:#FFFFFF;}
	.st11{fill:none;stroke:#FFFFFF;stroke-width:0.2835;stroke-miterlimit:10;}
	.st12{fill:none;}
</style>
<g>
	<g>
		<g>
			<g>
				<path class="st0" d="M13.4,4.5c0,0,0.3,1.8-4.7,4.6c0,0-0.6-3.2,0.6-4.2s1.8-2.2,2.2-2C12,3.1,13.1,3.5,13.4,4.5z"/>
			</g>
			<g>
				<path class="st1" d="M8.3,9.1c0,0-1.1-7.9,2.4-7c2.6,0.7,2.7,2.3,2.7,2.3s-0.5-1.6-1.9-0.3c-1.1,1-2.4,3.5-2.8,5H8.3z"/>
			</g>
		</g>
		<g>
			<path class="st0" d="M8.4,8.6c0-0.4,0.1-0.9,0.2-1.3c0-0.4,0.1-0.9,0.3-1.3C8.7,6.4,8.6,6.9,8.6,7.3s-0.1,0.9,0,1.3H8.4z"/>
		</g>
		<g>
			<path class="st0" d="M8.6,8.6c0.1-0.7,0.3-1.4,0.6-2C8.9,7.3,8.8,8,8.6,8.6L8.6,8.6z"/>
		</g>
		<g>
			<g>
				<path class="st0" d="M1.2,11.5c0,0,1.5,1.1,6.4-1.8c0,0-2.4-2.1-4-1.6C2,8.7,0.8,8.6,0.7,9.1C0.7,9.7,0.4,10.8,1.2,11.5z"/>
			</g>
			<g>
				<path class="st1" d="M7.8,9.5c0,0-6.3-4.9-7.3-1.5c-0.7,2.6,0.7,3.5,0.7,3.5S0,10.2,1.9,9.7c1.4-0.4,4.2-0.3,5.7,0L7.8,9.5z"/>
			</g>
		</g>
		<g>
			<ellipse transform="matrix(0.8661 -0.4998 0.4998 0.8661 -3.5803 5.2457)" class="st0" cx="8" cy="9.3" rx="1" ry="0.7"/>
		</g>
		<g>
			<path class="st0" d="M7.1,9.8c-0.2-0.4,0-0.9,0.5-1.2l0.7,1.3C7.9,10.2,7.3,10.1,7.1,9.8z"/>
		</g>
		<g>
			<path class="st2" d="M1.6,16.9c0-0.2,0.2-0.4,0.4-0.4h17.7c0.2,0,0.4,0.2,0.4,0.4v12.4c0,0.2-0.2,0.4-0.4,0.4H1.9
				c-0.2,0-0.4-0.2-0.4-0.4C1.6,29.2,1.6,16.9,1.6,16.9z"/>
		</g>
		<g>
			<path class="st3" d="M10.8,16.9c0-0.2,0.2-0.4,0.4-0.4h8.5c0.2,0,0.4,0.2,0.4,0.4v12.4c0,0.2-0.2,0.4-0.4,0.4h-8.5
				c-0.2,0-0.4-0.2-0.4-0.4C10.8,29.3,10.8,16.9,10.8,16.9z"/>
		</g>
		<g>
			<path class="st2" d="M0.3,14.3c-0.1-0.2,0-0.4,0.2-0.5L15.8,5c0.2-0.1,0.4,0,0.5,0.1l1.1,1.8c0.1,0.2,0,0.4-0.2,0.5L1.9,16.3
				c-0.2,0.1-0.4,0-0.5-0.2L0.3,14.3z"/>
		</g>
		<g>
			<path class="st3" d="M8.3,9.7c-0.1-0.2,0-0.4,0.2-0.5L15.8,5c0.2-0.1,0.4,0,0.5,0.1l1.1,1.8c0.1,0.2,0,0.4-0.2,0.5l-7.3,4.2
				c-0.2,0.1-0.4,0-0.5-0.1L8.3,9.7z"/>
		</g>
		<g>
			<rect x="7.6" y="9.5" transform="matrix(0.866 -0.5 0.5 0.866 -4.3662 5.5889)" class="st1" width="1.3" height="2.9"/>
		</g>
		<g>
			<rect x="8.7" y="8.9" transform="matrix(0.866 -0.5001 0.5001 0.866 -3.9243 6.0675)" class="st0" width="1.3" height="2.9"/>
		</g>
		<g>
			<rect x="9.5" y="16.5" class="st1" width="2.6" height="13.1"/>
		</g>
		<g>
			<rect x="1.6" y="21.8" class="st1" width="18.5" height="2.6"/>
		</g>
		<g>
			<rect x="10.8" y="16.5" class="st0" width="1.3" height="13.1"/>
		</g>
		<g>
			<path class="st0" d="M7.3,9.2C6.9,9,6.5,8.8,6.1,8.7C5.7,8.6,5.2,8.4,4.8,8.4C5.2,8.5,5.6,8.6,6,8.8s0.8,0.4,1.1,0.6L7.3,9.2z"/>
		</g>
		<g>
			<path class="st0" d="M7.2,9.4C6.5,9.2,5.8,9,5.1,9c0.7,0.1,1.3,0.3,2,0.6L7.2,9.4z"/>
		</g>
		<g>
			<rect x="12.1" y="21.8" class="st4" width="7.9" height="2.6"/>
		</g>
	</g>
	<g>
		<g>
			<polygon class="st5" points="29.1,14.1 28.1,13.7 27.8,12.6 27.1,13.5 26,13.4 26.6,14.3 26.2,15.4 27.3,15 28.1,15.8 28.2,14.7 
							"/>
		</g>
		<g>
			<polygon class="st5" points="22.5,2.5 22.8,3 22.5,3.5 23,3.4 23.4,3.8 23.5,3.2 24,3 23.5,2.8 23.4,2.2 23,2.6 			"/>
		</g>
		<g>
			<polygon class="st2" points="24.1,18.7 24.8,18.4 25.4,18.7 25.3,18 25.7,17.4 25,17.4 24.7,16.7 24.4,17.4 23.7,17.5 24.2,18 
							"/>
		</g>
		<g>
			<polygon class="st6" points="9.7,13.5 9.2,13.8 8.6,13.6 8.8,14.2 8.4,14.6 9,14.7 9.3,15.2 9.5,14.6 10.1,14.5 9.6,14.1 			"/>
		</g>
		<g>
			<polygon class="st6" points="20.2,10.6 19.9,10.8 19.5,10.7 19.6,11.1 19.4,11.4 19.8,11.4 20,11.7 20.2,11.3 20.6,11.3 20.2,11 
							"/>
		</g>
		<g>
			<polygon class="st7" points="27.9,5.8 27.4,6.4 26.8,6.4 27.1,6.9 26.9,7.6 27.6,7.4 28.1,7.8 28.1,7.1 28.7,6.7 28,6.5 			"/>
		</g>
		<g>
			<path class="st2" d="M11,15.2c-0.1-0.1,2.3-1,4.4-2.5c1.8-1.3,3.7-2.8,5.1-3.9c2.8-2.2,5.9-4.9,6.5-4.2S23.5,8,21.3,9.5
				C18.9,11,11.1,15.4,11,15.2z"/>
		</g>
		<g>
			<path class="st5" d="M15.7,11c0,0,1.4-0.6,2.4-1.7c0.9-0.9,1.7-2,2.1-2.9c1-1.7,1.3-3.8,1.7-3.7c0.5,0.1-0.3,2.5-1.2,3.8
				C20.2,8,16,11.2,15.7,11z"/>
		</g>
		<g>
			<path class="st7" d="M14.3,16.1c0,0.1,1.3-0.6,2.7-0.8c1.2-0.1,2.6,0,3.5,0.2c1.9,0.3,3.9,1.4,4.1,0.9s-2.3-1.3-3.8-1.4
				C19.1,14.6,14.2,15.8,14.3,16.1z"/>
		</g>
		<g>
			<path class="st1" d="M12.8,15c0,0,12.8-3.8,14.5-4.2c1.7-0.4,1.1-1.4,0.2-1.1C26.6,9.9,16.6,13.3,12.8,15z"/>
		</g>
		<g>
			
				<ellipse transform="matrix(0.9088 -0.4173 0.4173 0.9088 9.174304e-02 8.8117)" class="st7" cx="20.2" cy="4.2" rx="0.3" ry="0.3"/>
		</g>
		<g>
			<ellipse transform="matrix(0.9093 -0.4162 0.4162 0.9093 -3.9681 9.5873)" class="st8" cx="20" cy="13.9" rx="0.3" ry="0.3"/>
		</g>
		<g>
			<ellipse transform="matrix(0.9087 -0.4175 0.4175 0.9087 -4.382 6.1677)" class="st1" cx="11.9" cy="13.1" rx="0.4" ry="0.4"/>
		</g>
		<g>
			<ellipse transform="matrix(0.9091 -0.4165 0.4165 0.9091 -5.7391 4.4788)" class="st0" cx="7.4" cy="15.4" rx="0.2" ry="0.2"/>
		</g>
		<g>
			<ellipse transform="matrix(0.9091 -0.4165 0.4165 0.9091 -1.7666 8.2841)" class="st0" cx="18.1" cy="8.2" rx="0.2" ry="0.2"/>
		</g>
		<g>
			
				<ellipse transform="matrix(0.9089 -0.4171 0.4171 0.9089 -9.198835e-02 9.9812)" class="st0" cx="22.8" cy="5.2" rx="0.3" ry="0.3"/>
		</g>
		<g>
			<ellipse transform="matrix(0.9089 -0.417 0.417 0.9089 -1.276 11.1556)" class="st0" cx="24.9" cy="8.5" rx="0.2" ry="0.2"/>
		</g>
		<g>
			<ellipse transform="matrix(0.9086 -0.4176 0.4176 0.9086 -1.8239 10.6811)" class="st5" cx="23.5" cy="9.5" rx="0.4" ry="0.4"/>
		</g>
		<g>
			<ellipse transform="matrix(0.9085 -0.4178 0.4178 0.9085 -5.3338 11.0196)" class="st5" cx="22.5" cy="17.7" rx="0.3" ry="0.3"/>
		</g>
		<g>
			<ellipse transform="matrix(0.9083 -0.4184 0.4184 0.9083 -3.5988 6.0068)" class="st5" cx="11.9" cy="11.2" rx="0.3" ry="0.3"/>
		</g>
		<g>
			<ellipse transform="matrix(0.9087 -0.4175 0.4175 0.9087 -2.5887 12.3788)" class="st5" cx="27" cy="12.1" rx="0.3" ry="0.3"/>
		</g>
		<g>
			<ellipse transform="matrix(0.9086 -0.4176 0.4176 0.9086 -5.56 6.777)" class="st5" cx="12.7" cy="16.1" rx="0.3" ry="0.3"/>
		</g>
		<g>
			<ellipse transform="matrix(0.9087 -0.4175 0.4175 0.9087 -3.6463 11.1233)" class="st3" cx="23.6" cy="13.9" rx="0.4" ry="0.4"/>
		</g>
		<g>
			<ellipse transform="matrix(0.9083 -0.4183 0.4183 0.9083 -3.5373 6.8661)" class="st3" cx="13.9" cy="11.5" rx="0.3" ry="0.3"/>
		</g>
		<g>
			<ellipse transform="matrix(0.9085 -0.4178 0.4178 0.9085 -0.8669 9.6459)" class="st3" cx="21.6" cy="6.8" rx="0.2" ry="0.2"/>
		</g>
		<g>
			<ellipse transform="matrix(0.9092 -0.4163 0.4163 0.9092 -2.4398 13.3968)" class="st7" cx="29.5" cy="12.3" rx="0.3" ry="0.3"/>
		</g>
		<g>
			<polygon class="st1" points="15.6,9.2 15.3,9.9 14.6,10.1 15.2,10.5 15.1,11.3 15.8,10.9 16.5,11.2 16.3,10.4 16.7,9.9 16,9.8 
							"/>
		</g>
		<g>
			<polygon class="st2" points="14.5,15.1 14.4,15.5 14,15.6 14.3,15.9 14.3,16.3 14.7,16.1 15.1,16.3 15,15.8 15.2,15.5 14.8,15.5 
							"/>
		</g>
	</g>
</g>
<g>
	<g class="st9">
		<path class="st10" d="M10.7,17.4c-0.1,0.1-0.2,0.2-0.5,0.3c-0.2,0.3-0.4,1.1-0.6,2.8c-0.3,3.3-1.5,4-2.5,4c-1,0-1.4-0.6-1.4-1.2
			c0-0.6,0.4-1.1,0.9-1.1l0,0.4c-0.3,0-0.6,0.4-0.6,0.8c0,0.5,0.3,1,1.1,1c0.9,0,1.8-0.6,2.1-3.8c0.2-1.5,0.4-2.3,0.7-2.8
			c-0.1,0-0.2,0-0.4,0c-1,0-2-0.5-3.4-0.5c-1.4,0-2.1,1.1-2.1,2.1c0,0.9,0.5,1.7,1.6,1.7c1.1,0,1.5-0.8,1.5-1.5c0-0.1,0-0.2,0-0.3
			l0.4-0.1c0,0.1,0,0.2,0,0.4c0,0.9-0.5,1.8-1.8,1.8c-1.3,0-2-0.9-2-1.9c0-1.1,0.9-2.4,2.5-2.4c1.5,0,2.6,0.5,3.5,0.5
			c0.2,0,0.4,0,0.5,0c0.2-0.3,0.4-0.3,0.5-0.4L10.7,17.4z"/>
		<path class="st10" d="M10.8,19.9c-0.2,1-0.4,2-0.4,2.5c0,0.2,0.1,0.3,0.1,0.3c0.2,0,0.5-0.5,0.8-1.4c0,0,0.1,0,0.1,0.1
			c-0.4,0.9-0.6,1.6-1,1.6c-0.2,0-0.3-0.3-0.3-0.7c0-0.7,0.3-1.7,0.4-2.4H10.8z M10.6,19.1c0-0.1,0.1-0.3,0.3-0.3
			c0.1,0,0.2,0.1,0.2,0.2c0,0.2-0.1,0.3-0.3,0.3C10.6,19.4,10.6,19.3,10.6,19.1z"/>
		<path class="st10" d="M13.1,21.3c0,0,0.1,0,0.1,0.1C13,22,12.6,23,12,23c-0.5,0-0.7-0.5-0.7-1.1c0-0.9,0.5-2.1,1.1-2.1
			c0.3,0,0.4,0.2,0.4,0.4c0,0.5-0.6,1.1-1.1,1.2c0,0.1,0,0.3,0,0.4c0,0.5,0.1,0.8,0.5,0.8C12.5,22.7,12.9,21.9,13.1,21.3z
			 M11.7,21.3c0.6-0.3,0.8-0.7,0.8-1.1c0-0.2,0-0.2-0.1-0.2C12.1,20,11.8,20.7,11.7,21.3z"/>
		<path class="st10" d="M12.8,22.9c0-0.1,0.1-0.6,0.2-1c0.1-0.7,0.3-1.5,0.3-2h0.4l-0.2,0.9c0.2-0.5,0.5-1,0.9-1
			c0.2,0,0.3,0.2,0.3,0.4c0,0.6-0.5,1.6-0.5,2.2c0,0.2,0.1,0.2,0.2,0.2c0.2,0,0.5-0.6,0.8-1.4c0,0,0.1,0.1,0.1,0.1l-0.1,0.2
			c-0.3,0.7-0.6,1.4-1,1.4c-0.2,0-0.4-0.2-0.4-0.5c0-0.6,0.5-1.7,0.5-2.2c0-0.2,0-0.2-0.2-0.2c-0.2,0-0.6,0.6-0.9,1.5l-0.2,1.3H12.8
			z"/>
		<path class="st10" d="M17.1,17.6h0.3c-0.1,1-0.8,4.1-0.8,4.6c0,0.2,0,0.3,0.1,0.3c0.2,0,0.4-0.5,0.7-1.3c0,0,0.1,0.1,0.1,0.1
			c-0.4,1.1-0.7,1.6-1,1.6c-0.2,0-0.3-0.2-0.3-0.6c0-0.1,0-0.2,0-0.5c-0.2,0.6-0.5,1.1-0.8,1.1c-0.3,0-0.4-0.3-0.4-0.8
			c0-0.9,0.5-2.4,1.1-2.4c0.2,0,0.4,0.2,0.4,0.5C16.8,19.4,17,18.3,17.1,17.6z M15.5,22.2c0,0.3,0.1,0.5,0.2,0.5
			c0.3,0,0.9-1.3,0.9-2c0-0.3-0.1-0.5-0.3-0.5C15.9,20.1,15.5,21.4,15.5,22.2z"/>
		<path class="st10" d="M19,19.9h0.3c-0.2,0.8-0.3,1.6-0.4,2.2c0,0.1,0,0.2,0,0.3c0,0.2,0,0.2,0.1,0.2c0.2,0,0.4-0.5,0.8-1.4
			c0,0,0.1,0.1,0.1,0.1c-0.5,1.1-0.7,1.6-1,1.6c-0.2,0-0.3-0.2-0.3-0.7l0-0.3c-0.2,0.5-0.5,1-0.8,1c-0.3,0-0.4-0.3-0.4-0.8
			c0-0.9,0.5-2.4,1.1-2.4c0.3,0,0.4,0.2,0.4,0.5L19,19.9z M17.8,22.2c0,0.3,0.1,0.5,0.2,0.5c0.4,0,0.8-1.4,0.8-2
			c0-0.3-0.1-0.5-0.3-0.5C18.2,20.1,17.8,21.4,17.8,22.2z"/>
	</g>
	<g class="st9">
		<path class="st11" d="M10.7,17.4c-0.1,0.1-0.2,0.2-0.5,0.3c-0.2,0.3-0.4,1.1-0.6,2.8c-0.3,3.3-1.5,4-2.5,4c-1,0-1.4-0.6-1.4-1.2
			c0-0.6,0.4-1.1,0.9-1.1l0,0.4c-0.3,0-0.6,0.4-0.6,0.8c0,0.5,0.3,1,1.1,1c0.9,0,1.8-0.6,2.1-3.8c0.2-1.5,0.4-2.3,0.7-2.8
			c-0.1,0-0.2,0-0.4,0c-1,0-2-0.5-3.4-0.5c-1.4,0-2.1,1.1-2.1,2.1c0,0.9,0.5,1.7,1.6,1.7c1.1,0,1.5-0.8,1.5-1.5c0-0.1,0-0.2,0-0.3
			l0.4-0.1c0,0.1,0,0.2,0,0.4c0,0.9-0.5,1.8-1.8,1.8c-1.3,0-2-0.9-2-1.9c0-1.1,0.9-2.4,2.5-2.4c1.5,0,2.6,0.5,3.5,0.5
			c0.2,0,0.4,0,0.5,0c0.2-0.3,0.4-0.3,0.5-0.4L10.7,17.4z"/>
		<path class="st11" d="M10.8,19.9c-0.2,1-0.4,2-0.4,2.5c0,0.2,0.1,0.3,0.1,0.3c0.2,0,0.5-0.5,0.8-1.4c0,0,0.1,0,0.1,0.1
			c-0.4,0.9-0.6,1.6-1,1.6c-0.2,0-0.3-0.3-0.3-0.7c0-0.7,0.3-1.7,0.4-2.4H10.8z M10.6,19.1c0-0.1,0.1-0.3,0.3-0.3
			c0.1,0,0.2,0.1,0.2,0.2c0,0.2-0.1,0.3-0.3,0.3C10.6,19.4,10.6,19.3,10.6,19.1z"/>
		<path class="st11" d="M13.1,21.3c0,0,0.1,0,0.1,0.1C13,22,12.6,23,12,23c-0.5,0-0.7-0.5-0.7-1.1c0-0.9,0.5-2.1,1.1-2.1
			c0.3,0,0.4,0.2,0.4,0.4c0,0.5-0.6,1.1-1.1,1.2c0,0.1,0,0.3,0,0.4c0,0.5,0.1,0.8,0.5,0.8C12.5,22.7,12.9,21.9,13.1,21.3z
			 M11.7,21.3c0.6-0.3,0.8-0.7,0.8-1.1c0-0.2,0-0.2-0.1-0.2C12.1,20,11.8,20.7,11.7,21.3z"/>
		<path class="st11" d="M12.8,22.9c0-0.1,0.1-0.6,0.2-1c0.1-0.7,0.3-1.5,0.3-2h0.4l-0.2,0.9c0.2-0.5,0.5-1,0.9-1
			c0.2,0,0.3,0.2,0.3,0.4c0,0.6-0.5,1.6-0.5,2.2c0,0.2,0.1,0.2,0.2,0.2c0.2,0,0.5-0.6,0.8-1.4c0,0,0.1,0.1,0.1,0.1l-0.1,0.2
			c-0.3,0.7-0.6,1.4-1,1.4c-0.2,0-0.4-0.2-0.4-0.5c0-0.6,0.5-1.7,0.5-2.2c0-0.2,0-0.2-0.2-0.2c-0.2,0-0.6,0.6-0.9,1.5l-0.2,1.3H12.8
			z"/>
		<path class="st11" d="M17.1,17.6h0.3c-0.1,1-0.8,4.1-0.8,4.6c0,0.2,0,0.3,0.1,0.3c0.2,0,0.4-0.5,0.7-1.3c0,0,0.1,0.1,0.1,0.1
			c-0.4,1.1-0.7,1.6-1,1.6c-0.2,0-0.3-0.2-0.3-0.6c0-0.1,0-0.2,0-0.5c-0.2,0.6-0.5,1.1-0.8,1.1c-0.3,0-0.4-0.3-0.4-0.8
			c0-0.9,0.5-2.4,1.1-2.4c0.2,0,0.4,0.2,0.4,0.5C16.8,19.4,17,18.3,17.1,17.6z M15.5,22.2c0,0.3,0.1,0.5,0.2,0.5
			c0.3,0,0.9-1.3,0.9-2c0-0.3-0.1-0.5-0.3-0.5C15.9,20.1,15.5,21.4,15.5,22.2z"/>
		<path class="st11" d="M19,19.9h0.3c-0.2,0.8-0.3,1.6-0.4,2.2c0,0.1,0,0.2,0,0.3c0,0.2,0,0.2,0.1,0.2c0.2,0,0.4-0.5,0.8-1.4
			c0,0,0.1,0.1,0.1,0.1c-0.5,1.1-0.7,1.6-1,1.6c-0.2,0-0.3-0.2-0.3-0.7l0-0.3c-0.2,0.5-0.5,1-0.8,1c-0.3,0-0.4-0.3-0.4-0.8
			c0-0.9,0.5-2.4,1.1-2.4c0.3,0,0.4,0.2,0.4,0.5L19,19.9z M17.8,22.2c0,0.3,0.1,0.5,0.2,0.5c0.4,0,0.8-1.4,0.8-2
			c0-0.3-0.1-0.5-0.3-0.5C18.2,20.1,17.8,21.4,17.8,22.2z"/>
	</g>
	<g class="st9">
		<path class="st10" d="M7.4,27.1c-0.1-0.1-0.1-0.2-0.1-0.3c0-0.6,0.8-1,1.4-1c0.2-1.6,0.5-2.4,0.7-2.8c-0.1,0-0.2,0-0.4,0
			c-1,0-2-0.5-3.4-0.5c-1.4,0-2.1,1.1-2.1,2.1c0,0.9,0.5,1.7,1.6,1.7c1.1,0,1.5-0.7,1.5-1.5c0-0.1,0-0.2,0-0.4l0.4-0.1
			c0,0.1,0,0.3,0,0.4c0,0.9-0.5,1.8-1.9,1.8c-1.3,0-2-0.9-2-1.9c0-1.1,0.9-2.4,2.5-2.4c1.5,0,2.6,0.5,3.5,0.5c0.2,0,0.4,0,0.5,0
			c0.2-0.3,0.4-0.3,0.5-0.4l0.2,0.2c-0.1,0.1-0.2,0.3-0.5,0.3c-0.2,0.3-0.4,0.9-0.6,2.5l0,0.4c0.3,0,0.4-0.1,0.6-0.2
			C9.8,25.2,10,25,10,25c0.1,0,0.2,0.1,0.2,0.1c0,0.2-0.1,0.4-0.4,0.6c0,0.3-0.1,0.8-0.1,1.4H9.4c0-0.5,0.1-0.9,0.2-1.3
			c-0.1,0.1-0.3,0.1-0.5,0.1c-0.4,3-1.5,3.7-2.5,3.7c-1,0-1.4-0.6-1.4-1.2c0-0.6,0.4-1.1,0.9-1.1c0,0.1,0,0.2,0,0.4
			c-0.4,0-0.6,0.3-0.6,0.7c0,0.5,0.3,1,1.1,1c0.8,0,1.7-0.6,2.1-3.5c-0.6,0.1-1,0.3-1,0.7c0,0.1,0,0.2,0.1,0.3L7.4,27.1z"/>
		<path class="st10" d="M10.8,25c-0.2,1-0.4,2-0.4,2.5c0,0.2,0.1,0.3,0.1,0.3c0.2,0,0.5-0.5,0.8-1.4c0,0,0.1,0,0.1,0.1
			c-0.4,0.9-0.6,1.6-1,1.6c-0.2,0-0.3-0.3-0.3-0.7c0-0.7,0.3-1.7,0.4-2.4H10.8z M10.6,24.3c0-0.1,0.1-0.3,0.3-0.3
			c0.1,0,0.2,0.1,0.2,0.2c0,0.2-0.1,0.3-0.3,0.3C10.6,24.5,10.6,24.4,10.6,24.3z"/>
		<path class="st10" d="M13.1,26.5c0,0,0.1,0,0.1,0.1c-0.2,0.6-0.6,1.6-1.2,1.6c-0.5,0-0.7-0.5-0.7-1.1c0-0.9,0.5-2.1,1.1-2.1
			c0.3,0,0.4,0.2,0.4,0.4c0,0.5-0.6,1.1-1.1,1.2c0,0.1,0,0.3,0,0.4c0,0.5,0.1,0.8,0.5,0.8C12.5,27.8,12.9,27.1,13.1,26.5z
			 M11.7,26.4c0.6-0.3,0.8-0.7,0.8-1.1c0-0.2,0-0.2-0.1-0.2C12.1,25.1,11.8,25.8,11.7,26.4z"/>
		<path class="st10" d="M13.2,27.5c0,0.2,0.1,0.3,0.3,0.3c0.2,0,0.4-0.3,0.4-0.6c0-0.5-0.3-1-0.4-1.7c-0.1,0.4-0.2,0.7-0.3,1
			c0,0-0.1,0-0.1-0.1c0.1-0.3,0.3-0.7,0.4-1.2c0-0.1,0-0.3,0-0.6c0-0.2,0.1-0.5,0.1-0.7l0.3,0.1c0,0.4-0.1,0.7-0.2,1
			c0,0.7,0.6,1.5,0.6,2.1c0,0.1,0,0.1,0,0.2c0.1-0.2,0.3-0.5,0.4-0.9c0,0,0.1,0,0.1,0.1c-0.2,0.5-0.6,1.6-1.3,1.6
			c-0.3,0-0.6-0.2-0.6-0.6L13.2,27.5z"/>
		<path class="st10" d="M14.9,25c0.3-1.4,0.5-1.6,0.7-1.6c0.2,0,0.3,0.2,0.3,0.4c0,0.3-0.1,0.7-0.3,1.1h0.2l0,0.2h-0.3
			c-0.1,0.4-0.3,0.7-0.5,1.1c0,0.4-0.1,0.7-0.1,0.9c0,0.4,0.1,0.6,0.2,0.6c0.2,0,0.5-0.5,0.8-1.4c0,0,0.1,0,0.1,0.1v0
			c-0.4,1.1-0.7,1.6-1.1,1.6c-0.3,0-0.4-0.4-0.4-1.1c0-0.5,0.1-1.1,0.2-1.8c0,0,0,0,0-0.1h-0.3l0-0.2H14.9z M15.4,25.2h-0.2
			l-0.1,0.7L15.4,25.2z M15.6,23.7c-0.1,0-0.2,0.5-0.4,1.3h0.2c0.2-0.4,0.3-0.8,0.3-1.1C15.7,23.8,15.7,23.7,15.6,23.7z"/>
		<path class="st10" d="M17.5,25h0.3c-0.2,0.8-0.3,1.6-0.4,2.2c0,0.1,0,0.2,0,0.3c0,0.2,0,0.2,0.1,0.2c0.2,0,0.4-0.5,0.8-1.4
			c0,0,0.1,0.1,0.1,0.1c-0.5,1.1-0.7,1.6-1,1.6c-0.2,0-0.3-0.2-0.3-0.7l0-0.3c-0.2,0.5-0.5,1-0.8,1c-0.3,0-0.4-0.3-0.4-0.8
			c0-0.9,0.5-2.4,1.1-2.4c0.3,0,0.4,0.2,0.4,0.5L17.5,25z M16.2,27.3c0,0.3,0.1,0.5,0.2,0.5c0.4,0,0.8-1.4,0.8-2
			c0-0.3-0.1-0.5-0.3-0.5C16.6,25.2,16.2,26.6,16.2,27.3z"/>
	</g>
	<g class="st9">
		<path class="st11" d="M7.4,27.1c-0.1-0.1-0.1-0.2-0.1-0.3c0-0.6,0.8-1,1.4-1c0.2-1.6,0.5-2.4,0.7-2.8c-0.1,0-0.2,0-0.4,0
			c-1,0-2-0.5-3.4-0.5c-1.4,0-2.1,1.1-2.1,2.1c0,0.9,0.5,1.7,1.6,1.7c1.1,0,1.5-0.7,1.5-1.5c0-0.1,0-0.2,0-0.4l0.4-0.1
			c0,0.1,0,0.3,0,0.4c0,0.9-0.5,1.8-1.9,1.8c-1.3,0-2-0.9-2-1.9c0-1.1,0.9-2.4,2.5-2.4c1.5,0,2.6,0.5,3.5,0.5c0.2,0,0.4,0,0.5,0
			c0.2-0.3,0.4-0.3,0.5-0.4l0.2,0.2c-0.1,0.1-0.2,0.3-0.5,0.3c-0.2,0.3-0.4,0.9-0.6,2.5l0,0.4c0.3,0,0.4-0.1,0.6-0.2
			C9.8,25.2,10,25,10,25c0.1,0,0.2,0.1,0.2,0.1c0,0.2-0.1,0.4-0.4,0.6c0,0.3-0.1,0.8-0.1,1.4H9.4c0-0.5,0.1-0.9,0.2-1.3
			c-0.1,0.1-0.3,0.1-0.5,0.1c-0.4,3-1.5,3.7-2.5,3.7c-1,0-1.4-0.6-1.4-1.2c0-0.6,0.4-1.1,0.9-1.1c0,0.1,0,0.2,0,0.4
			c-0.4,0-0.6,0.3-0.6,0.7c0,0.5,0.3,1,1.1,1c0.8,0,1.7-0.6,2.1-3.5c-0.6,0.1-1,0.3-1,0.7c0,0.1,0,0.2,0.1,0.3L7.4,27.1z"/>
		<path class="st11" d="M10.8,25c-0.2,1-0.4,2-0.4,2.5c0,0.2,0.1,0.3,0.1,0.3c0.2,0,0.5-0.5,0.8-1.4c0,0,0.1,0,0.1,0.1
			c-0.4,0.9-0.6,1.6-1,1.6c-0.2,0-0.3-0.3-0.3-0.7c0-0.7,0.3-1.7,0.4-2.4H10.8z M10.6,24.3c0-0.1,0.1-0.3,0.3-0.3
			c0.1,0,0.2,0.1,0.2,0.2c0,0.2-0.1,0.3-0.3,0.3C10.6,24.5,10.6,24.4,10.6,24.3z"/>
		<path class="st11" d="M13.1,26.5c0,0,0.1,0,0.1,0.1c-0.2,0.6-0.6,1.6-1.2,1.6c-0.5,0-0.7-0.5-0.7-1.1c0-0.9,0.5-2.1,1.1-2.1
			c0.3,0,0.4,0.2,0.4,0.4c0,0.5-0.6,1.1-1.1,1.2c0,0.1,0,0.3,0,0.4c0,0.5,0.1,0.8,0.5,0.8C12.5,27.8,12.9,27.1,13.1,26.5z
			 M11.7,26.4c0.6-0.3,0.8-0.7,0.8-1.1c0-0.2,0-0.2-0.1-0.2C12.1,25.1,11.8,25.8,11.7,26.4z"/>
		<path class="st11" d="M13.2,27.5c0,0.2,0.1,0.3,0.3,0.3c0.2,0,0.4-0.3,0.4-0.6c0-0.5-0.3-1-0.4-1.7c-0.1,0.4-0.2,0.7-0.3,1
			c0,0-0.1,0-0.1-0.1c0.1-0.3,0.3-0.7,0.4-1.2c0-0.1,0-0.3,0-0.6c0-0.2,0.1-0.5,0.1-0.7l0.3,0.1c0,0.4-0.1,0.7-0.2,1
			c0,0.7,0.6,1.5,0.6,2.1c0,0.1,0,0.1,0,0.2c0.1-0.2,0.3-0.5,0.4-0.9c0,0,0.1,0,0.1,0.1c-0.2,0.5-0.6,1.6-1.3,1.6
			c-0.3,0-0.6-0.2-0.6-0.6L13.2,27.5z"/>
		<path class="st11" d="M14.9,25c0.3-1.4,0.5-1.6,0.7-1.6c0.2,0,0.3,0.2,0.3,0.4c0,0.3-0.1,0.7-0.3,1.1h0.2l0,0.2h-0.3
			c-0.1,0.4-0.3,0.7-0.5,1.1c0,0.4-0.1,0.7-0.1,0.9c0,0.4,0.1,0.6,0.2,0.6c0.2,0,0.5-0.5,0.8-1.4c0,0,0.1,0,0.1,0.1v0
			c-0.4,1.1-0.7,1.6-1.1,1.6c-0.3,0-0.4-0.4-0.4-1.1c0-0.5,0.1-1.1,0.2-1.8c0,0,0,0,0-0.1h-0.3l0-0.2H14.9z M15.4,25.2h-0.2
			l-0.1,0.7L15.4,25.2z M15.6,23.7c-0.1,0-0.2,0.5-0.4,1.3h0.2c0.2-0.4,0.3-0.8,0.3-1.1C15.7,23.8,15.7,23.7,15.6,23.7z"/>
		<path class="st11" d="M17.5,25h0.3c-0.2,0.8-0.3,1.6-0.4,2.2c0,0.1,0,0.2,0,0.3c0,0.2,0,0.2,0.1,0.2c0.2,0,0.4-0.5,0.8-1.4
			c0,0,0.1,0.1,0.1,0.1c-0.5,1.1-0.7,1.6-1,1.6c-0.2,0-0.3-0.2-0.3-0.7l0-0.3c-0.2,0.5-0.5,1-0.8,1c-0.3,0-0.4-0.3-0.4-0.8
			c0-0.9,0.5-2.4,1.1-2.4c0.3,0,0.4,0.2,0.4,0.5L17.5,25z M16.2,27.3c0,0.3,0.1,0.5,0.2,0.5c0.4,0,0.8-1.4,0.8-2
			c0-0.3-0.1-0.5-0.3-0.5C16.6,25.2,16.2,26.6,16.2,27.3z"/>
	</g>
	<g class="st9">
		<path class="st10" d="M7.2,22.9V24H7.1v-0.1c0,0,0,0.1-0.1,0.1c0,0,0,0-0.1,0c-0.1,0-0.1,0-0.1-0.1c0-0.1,0-0.2,0-0.3
			c0-0.1,0-0.1,0-0.2c0,0,0-0.1,0-0.1s0,0,0.1-0.1c0,0,0,0,0.1,0c0,0,0.1,0,0.1,0c0,0,0,0,0,0c0,0,0,0,0,0v-0.5H7.2z M6.9,23.6
			c0,0.1,0,0.2,0,0.2s0,0.1,0.1,0.1c0,0,0,0,0.1-0.1c0,0,0-0.1,0-0.2c0-0.1,0-0.1,0-0.2c0,0,0-0.1-0.1-0.1c0,0-0.1,0-0.1,0.1
			C6.9,23.5,6.9,23.5,6.9,23.6z"/>
		<path class="st10" d="M7.6,23.8h0.1c0,0.2-0.1,0.2-0.2,0.2c0,0-0.1,0-0.1,0c0,0,0,0-0.1-0.1c0,0,0-0.1,0-0.1c0,0,0-0.1,0-0.2
			c0-0.1,0-0.2,0.1-0.3c0-0.1,0.1-0.1,0.2-0.1c0.1,0,0.2,0.1,0.2,0.4v0H7.5c0,0.1,0,0.2,0.1,0.2C7.6,23.9,7.6,23.8,7.6,23.8z
			 M7.6,23.6c0-0.1,0-0.1,0-0.1c0,0,0,0-0.1,0c0,0,0,0-0.1,0c0,0,0,0.1,0,0.1H7.6z"/>
	</g>
	<g class="st9">
		<path class="st11" d="M7.2,22.9V24H7.1v-0.1c0,0,0,0.1-0.1,0.1c0,0,0,0-0.1,0c-0.1,0-0.1,0-0.1-0.1c0-0.1,0-0.2,0-0.3
			c0-0.1,0-0.1,0-0.2c0,0,0-0.1,0-0.1s0,0,0.1-0.1c0,0,0,0,0.1,0c0,0,0.1,0,0.1,0c0,0,0,0,0,0c0,0,0,0,0,0v-0.5H7.2z M6.9,23.6
			c0,0.1,0,0.2,0,0.2s0,0.1,0.1,0.1c0,0,0,0,0.1-0.1c0,0,0-0.1,0-0.2c0-0.1,0-0.1,0-0.2c0,0,0-0.1-0.1-0.1c0,0-0.1,0-0.1,0.1
			C6.9,23.5,6.9,23.5,6.9,23.6z"/>
		<path class="st11" d="M7.6,23.8h0.1c0,0.2-0.1,0.2-0.2,0.2c0,0-0.1,0-0.1,0c0,0,0,0-0.1-0.1c0,0,0-0.1,0-0.1c0,0,0-0.1,0-0.2
			c0-0.1,0-0.2,0.1-0.3c0-0.1,0.1-0.1,0.2-0.1c0.1,0,0.2,0.1,0.2,0.4v0H7.5c0,0.1,0,0.2,0.1,0.2C7.6,23.9,7.6,23.8,7.6,23.8z
			 M7.6,23.6c0-0.1,0-0.1,0-0.1c0,0,0,0-0.1,0c0,0,0,0-0.1,0c0,0,0,0.1,0,0.1H7.6z"/>
	</g>
</g>
<polyline class="st12" points="-23.5,-29.6 9.6,-29.6 45.6,-29.6 "/>
<g>
	<g class="st9">
		<path class="st5" d="M10.7,17.4c-0.1,0.1-0.2,0.2-0.5,0.3c-0.2,0.3-0.4,1.1-0.6,2.8c-0.3,3.3-1.5,4-2.5,4c-1,0-1.4-0.6-1.4-1.2
			c0-0.6,0.4-1.1,0.9-1.1l0,0.4c-0.3,0-0.6,0.4-0.6,0.8c0,0.5,0.3,1,1.1,1c0.9,0,1.8-0.6,2.1-3.8c0.2-1.5,0.4-2.3,0.7-2.8
			c-0.1,0-0.2,0-0.4,0c-1,0-2-0.5-3.4-0.5c-1.4,0-2.1,1.1-2.1,2.1c0,0.9,0.5,1.7,1.6,1.7c1.1,0,1.5-0.8,1.5-1.5c0-0.1,0-0.2,0-0.3
			l0.4-0.1c0,0.1,0,0.2,0,0.4c0,0.9-0.5,1.8-1.8,1.8c-1.3,0-2-0.9-2-1.9c0-1.1,0.9-2.4,2.5-2.4c1.5,0,2.6,0.5,3.5,0.5
			c0.2,0,0.4,0,0.5,0c0.2-0.3,0.4-0.3,0.5-0.4L10.7,17.4z"/>
		<path class="st5" d="M10.8,19.9c-0.2,1-0.4,2-0.4,2.5c0,0.2,0.1,0.3,0.1,0.3c0.2,0,0.5-0.5,0.8-1.4c0,0,0.1,0,0.1,0.1
			c-0.4,0.9-0.6,1.6-1,1.6c-0.2,0-0.3-0.3-0.3-0.7c0-0.7,0.3-1.7,0.4-2.4H10.8z M10.6,19.1c0-0.1,0.1-0.3,0.3-0.3
			c0.1,0,0.2,0.1,0.2,0.2c0,0.2-0.1,0.3-0.3,0.3C10.6,19.4,10.6,19.3,10.6,19.1z"/>
		<path class="st5" d="M13.1,21.3c0,0,0.1,0,0.1,0.1C13,22,12.6,23,12,23c-0.5,0-0.7-0.5-0.7-1.1c0-0.9,0.5-2.1,1.1-2.1
			c0.3,0,0.4,0.2,0.4,0.4c0,0.5-0.6,1.1-1.1,1.2c0,0.1,0,0.3,0,0.4c0,0.5,0.1,0.8,0.5,0.8C12.5,22.7,12.9,21.9,13.1,21.3z
			 M11.7,21.3c0.6-0.3,0.8-0.7,0.8-1.1c0-0.2,0-0.2-0.1-0.2C12.1,20,11.8,20.7,11.7,21.3z"/>
		<path class="st5" d="M12.8,22.9c0-0.1,0.1-0.6,0.2-1c0.1-0.7,0.3-1.5,0.3-2h0.4l-0.2,0.9c0.2-0.5,0.5-1,0.9-1
			c0.2,0,0.3,0.2,0.3,0.4c0,0.6-0.5,1.6-0.5,2.2c0,0.2,0.1,0.2,0.2,0.2c0.2,0,0.5-0.6,0.8-1.4c0,0,0.1,0.1,0.1,0.1l-0.1,0.2
			c-0.3,0.7-0.6,1.4-1,1.4c-0.2,0-0.4-0.2-0.4-0.5c0-0.6,0.5-1.7,0.5-2.2c0-0.2,0-0.2-0.2-0.2c-0.2,0-0.6,0.6-0.9,1.5l-0.2,1.3H12.8
			z"/>
		<path class="st5" d="M17.1,17.6h0.3c-0.1,1-0.8,4.1-0.8,4.6c0,0.2,0,0.3,0.1,0.3c0.2,0,0.4-0.5,0.7-1.3c0,0,0.1,0.1,0.1,0.1
			c-0.4,1.1-0.7,1.6-1,1.6c-0.2,0-0.3-0.2-0.3-0.6c0-0.1,0-0.2,0-0.5c-0.2,0.6-0.5,1.1-0.8,1.1c-0.3,0-0.4-0.3-0.4-0.8
			c0-0.9,0.5-2.4,1.1-2.4c0.2,0,0.4,0.2,0.4,0.5C16.8,19.4,17,18.3,17.1,17.6z M15.5,22.2c0,0.3,0.1,0.5,0.2,0.5
			c0.3,0,0.9-1.3,0.9-2c0-0.3-0.1-0.5-0.3-0.5C15.9,20.1,15.5,21.4,15.5,22.2z"/>
		<path class="st5" d="M19,19.9h0.3c-0.2,0.8-0.3,1.6-0.4,2.2c0,0.1,0,0.2,0,0.3c0,0.2,0,0.2,0.1,0.2c0.2,0,0.4-0.5,0.8-1.4
			c0,0,0.1,0.1,0.1,0.1c-0.5,1.1-0.7,1.6-1,1.6c-0.2,0-0.3-0.2-0.3-0.7l0-0.3c-0.2,0.5-0.5,1-0.8,1c-0.3,0-0.4-0.3-0.4-0.8
			c0-0.9,0.5-2.4,1.1-2.4c0.3,0,0.4,0.2,0.4,0.5L19,19.9z M17.8,22.2c0,0.3,0.1,0.5,0.2,0.5c0.4,0,0.8-1.4,0.8-2
			c0-0.3-0.1-0.5-0.3-0.5C18.2,20.1,17.8,21.4,17.8,22.2z"/>
	</g>
	<g class="st9">
		<path class="st7" d="M7.4,27.1c-0.1-0.1-0.1-0.2-0.1-0.3c0-0.6,0.8-1,1.4-1c0.2-1.6,0.5-2.4,0.7-2.8c-0.1,0-0.2,0-0.4,0
			c-1,0-2-0.5-3.4-0.5c-1.4,0-2.1,1.1-2.1,2.1c0,0.9,0.5,1.7,1.6,1.7c1.1,0,1.5-0.7,1.5-1.5c0-0.1,0-0.2,0-0.4l0.4-0.1
			c0,0.1,0,0.3,0,0.4c0,0.9-0.5,1.8-1.9,1.8c-1.3,0-2-0.9-2-1.9c0-1.1,0.9-2.4,2.5-2.4c1.5,0,2.6,0.5,3.5,0.5c0.2,0,0.4,0,0.5,0
			c0.2-0.3,0.4-0.3,0.5-0.4l0.2,0.2c-0.1,0.1-0.2,0.3-0.5,0.3c-0.2,0.3-0.4,0.9-0.6,2.5l0,0.4c0.3,0,0.4-0.1,0.6-0.2
			C9.8,25.2,10,25,10,25c0.1,0,0.2,0.1,0.2,0.1c0,0.2-0.1,0.4-0.4,0.6c0,0.3-0.1,0.8-0.1,1.4H9.4c0-0.5,0.1-0.9,0.2-1.3
			c-0.1,0.1-0.3,0.1-0.5,0.1c-0.4,3-1.5,3.7-2.5,3.7c-1,0-1.4-0.6-1.4-1.2c0-0.6,0.4-1.1,0.9-1.1c0,0.1,0,0.2,0,0.4
			c-0.4,0-0.6,0.3-0.6,0.7c0,0.5,0.3,1,1.1,1c0.8,0,1.7-0.6,2.1-3.5c-0.6,0.1-1,0.3-1,0.7c0,0.1,0,0.2,0.1,0.3L7.4,27.1z"/>
		<path class="st7" d="M10.8,25c-0.2,1-0.4,2-0.4,2.5c0,0.2,0.1,0.3,0.1,0.3c0.2,0,0.5-0.5,0.8-1.4c0,0,0.1,0,0.1,0.1
			c-0.4,0.9-0.6,1.6-1,1.6c-0.2,0-0.3-0.3-0.3-0.7c0-0.7,0.3-1.7,0.4-2.4H10.8z M10.6,24.3c0-0.1,0.1-0.3,0.3-0.3
			c0.1,0,0.2,0.1,0.2,0.2c0,0.2-0.1,0.3-0.3,0.3C10.6,24.5,10.6,24.4,10.6,24.3z"/>
		<path class="st7" d="M13.1,26.5c0,0,0.1,0,0.1,0.1c-0.2,0.6-0.6,1.6-1.2,1.6c-0.5,0-0.7-0.5-0.7-1.1c0-0.9,0.5-2.1,1.1-2.1
			c0.3,0,0.4,0.2,0.4,0.4c0,0.5-0.6,1.1-1.1,1.2c0,0.1,0,0.3,0,0.4c0,0.5,0.1,0.8,0.5,0.8C12.5,27.8,12.9,27.1,13.1,26.5z
			 M11.7,26.4c0.6-0.3,0.8-0.7,0.8-1.1c0-0.2,0-0.2-0.1-0.2C12.1,25.1,11.8,25.8,11.7,26.4z"/>
		<path class="st7" d="M13.2,27.5c0,0.2,0.1,0.3,0.3,0.3c0.2,0,0.4-0.3,0.4-0.6c0-0.5-0.3-1-0.4-1.7c-0.1,0.4-0.2,0.7-0.3,1
			c0,0-0.1,0-0.1-0.1c0.1-0.3,0.3-0.7,0.4-1.2c0-0.1,0-0.3,0-0.6c0-0.2,0.1-0.5,0.1-0.7l0.3,0.1c0,0.4-0.1,0.7-0.2,1
			c0,0.7,0.6,1.5,0.6,2.1c0,0.1,0,0.1,0,0.2c0.1-0.2,0.3-0.5,0.4-0.9c0,0,0.1,0,0.1,0.1c-0.2,0.5-0.6,1.6-1.3,1.6
			c-0.3,0-0.6-0.2-0.6-0.6L13.2,27.5z"/>
		<path class="st7" d="M14.9,25c0.3-1.4,0.5-1.6,0.7-1.6c0.2,0,0.3,0.2,0.3,0.4c0,0.3-0.1,0.7-0.3,1.1h0.2l0,0.2h-0.3
			c-0.1,0.4-0.3,0.7-0.5,1.1c0,0.4-0.1,0.7-0.1,0.9c0,0.4,0.1,0.6,0.2,0.6c0.2,0,0.5-0.5,0.8-1.4c0,0,0.1,0,0.1,0.1v0
			c-0.4,1.1-0.7,1.6-1.1,1.6c-0.3,0-0.4-0.4-0.4-1.1c0-0.5,0.1-1.1,0.2-1.8c0,0,0,0,0-0.1h-0.3l0-0.2H14.9z M15.4,25.2h-0.2
			l-0.1,0.7L15.4,25.2z M15.6,23.7c-0.1,0-0.2,0.5-0.4,1.3h0.2c0.2-0.4,0.3-0.8,0.3-1.1C15.7,23.8,15.7,23.7,15.6,23.7z"/>
		<path class="st7" d="M17.5,25h0.3c-0.2,0.8-0.3,1.6-0.4,2.2c0,0.1,0,0.2,0,0.3c0,0.2,0,0.2,0.1,0.2c0.2,0,0.4-0.5,0.8-1.4
			c0,0,0.1,0.1,0.1,0.1c-0.5,1.1-0.7,1.6-1,1.6c-0.2,0-0.3-0.2-0.3-0.7l0-0.3c-0.2,0.5-0.5,1-0.8,1c-0.3,0-0.4-0.3-0.4-0.8
			c0-0.9,0.5-2.4,1.1-2.4c0.3,0,0.4,0.2,0.4,0.5L17.5,25z M16.2,27.3c0,0.3,0.1,0.5,0.2,0.5c0.4,0,0.8-1.4,0.8-2
			c0-0.3-0.1-0.5-0.3-0.5C16.6,25.2,16.2,26.6,16.2,27.3z"/>
	</g>
	<g class="st9">
		<path class="st8" d="M7.2,22.9V24H7.1v-0.1c0,0,0,0.1-0.1,0.1c0,0,0,0-0.1,0c-0.1,0-0.1,0-0.1-0.1c0-0.1,0-0.2,0-0.3
			c0-0.1,0-0.1,0-0.2c0,0,0-0.1,0-0.1s0,0,0.1-0.1c0,0,0,0,0.1,0c0,0,0.1,0,0.1,0c0,0,0,0,0,0c0,0,0,0,0,0v-0.5H7.2z M6.9,23.6
			c0,0.1,0,0.2,0,0.2s0,0.1,0.1,0.1c0,0,0,0,0.1-0.1c0,0,0-0.1,0-0.2c0-0.1,0-0.1,0-0.2c0,0,0-0.1-0.1-0.1c0,0-0.1,0-0.1,0.1
			C6.9,23.5,6.9,23.5,6.9,23.6z"/>
		<path class="st8" d="M7.6,23.8h0.1c0,0.2-0.1,0.2-0.2,0.2c0,0-0.1,0-0.1,0c0,0,0,0-0.1-0.1c0,0,0-0.1,0-0.1c0,0,0-0.1,0-0.2
			c0-0.1,0-0.2,0.1-0.3c0-0.1,0.1-0.1,0.2-0.1c0.1,0,0.2,0.1,0.2,0.4v0H7.5c0,0.1,0,0.2,0.1,0.2C7.6,23.9,7.6,23.8,7.6,23.8z
			 M7.6,23.6c0-0.1,0-0.1,0-0.1c0,0,0,0-0.1,0c0,0,0,0-0.1,0c0,0,0,0.1,0,0.1H7.6z"/>
	</g>
</g>
</svg>
